HIERARCHY
ROOT joint_Root
{
	OFFSET 0.0 0.0 0.0
	CHANNELS 6 Xposition Yposition Zposition Zrotation Xrotation Yrotation 
	JOINT Hips
	{
		OFFSET 4.5925 91.4895 -427.239
		CHANNELS 6 Xposition Yposition Zposition Zrotation Xrotation Yrotation 
		JOINT Spine
		{
			OFFSET 15.7357 0.0 0.0
			CHANNELS 6 Xposition Yposition Zposition Zrotation Xrotation Yrotation 
			JOINT Chest
			{
				OFFSET 8.98455 -0.406207 0.0
				CHANNELS 6 Xposition Yposition Zposition Zrotation Xrotation Yrotation 
				JOINT Neck
				{
					OFFSET 16.3773 0.0 0.0
					CHANNELS 6 Xposition Yposition Zposition Zrotation Xrotation Yrotation 
					JOINT Head
					{
						OFFSET 6.45672 0.0 0.0
						CHANNELS 6 Xposition Yposition Zposition Zrotation Xrotation Yrotation 
						End Site
						{
							OFFSET 0.0 0.0 0.0
						}
					}
				}
				JOINT Shoulder_L
				{
					OFFSET 12.9942 -0.242716 4.98039
					CHANNELS 6 Xposition Yposition Zposition Zrotation Xrotation Yrotation 
					JOINT UpperArm_L
					{
						OFFSET 5.34809 0.0 0.0
						CHANNELS 6 Xposition Yposition Zposition Zrotation Xrotation Yrotation 
						JOINT LowerArm_L
						{
							OFFSET 24.3286 1.87007e-05 0.0
							CHANNELS 6 Xposition Yposition Zposition Zrotation Xrotation Yrotation 
							JOINT Hand_L
							{
								OFFSET 22.2916 0.0 0.0
								CHANNELS 6 Xposition Yposition Zposition Zrotation Xrotation Yrotation 
								End Site
								{
									OFFSET 0.0 0.0 0.0
								}
							}
						}
					}
				}
				JOINT Shoulder_R
				{
					OFFSET 12.9945 -0.242716 -4.98039
					CHANNELS 6 Xposition Yposition Zposition Zrotation Xrotation Yrotation 
					JOINT UpperArm_R
					{
						OFFSET -5.34813 0.0 0.0
						CHANNELS 6 Xposition Yposition Zposition Zrotation Xrotation Yrotation 
						JOINT LowerArm_R
						{
							OFFSET -24.3289 0.000322201 0.0
							CHANNELS 6 Xposition Yposition Zposition Zrotation Xrotation Yrotation 
							JOINT Hand_R
							{
								OFFSET -22.2915 -0.000108084 0.0
								CHANNELS 6 Xposition Yposition Zposition Zrotation Xrotation Yrotation 
								End Site
								{
									OFFSET 0.0 0.0 0.0
								}
							}
						}
					}
				}
			}
		}
		JOINT UpperLeg_L
		{
			OFFSET -2.19248 -6.46944 0.0
			CHANNELS 6 Xposition Yposition Zposition Zrotation Xrotation Yrotation 
			JOINT LowerLeg_L
			{
				OFFSET 39.0811 0.0 -1.23785e-05
				CHANNELS 6 Xposition Yposition Zposition Zrotation Xrotation Yrotation 
				JOINT Foot_L
				{
					OFFSET 40.9854 0.0 -1.26872e-05
					CHANNELS 6 Xposition Yposition Zposition Zrotation Xrotation Yrotation 
					JOINT Toes_L
					{
						OFFSET 11.7543 0.0 0.0
						CHANNELS 6 Xposition Yposition Zposition Zrotation Xrotation Yrotation 
						End Site
						{
							OFFSET 0.0 0.0 0.0
						}
					}
				}
			}
		}
		JOINT UpperLeg_R
		{
			OFFSET -2.19251 6.46944 0.0
			CHANNELS 6 Xposition Yposition Zposition Zrotation Xrotation Yrotation 
			JOINT LowerLeg_R
			{
				OFFSET -39.0811 -0.00228153 -0.0401928
				CHANNELS 6 Xposition Yposition Zposition Zrotation Xrotation Yrotation 
				JOINT Foot_R
				{
					OFFSET -40.9854 0.0 0.0
					CHANNELS 6 Xposition Yposition Zposition Zrotation Xrotation Yrotation 
					JOINT Toes_R
					{
						OFFSET -11.7543 0.0 0.0
						CHANNELS 6 Xposition Yposition Zposition Zrotation Xrotation Yrotation 
						End Site
						{
							OFFSET 0.0 0.0 0.0
						}
					}
				}
			}
		}
	}
}
MOTION
Frames:	9
Frame Time:	0.0333333
0.000000 0.000000 0.000000 0.000000 0.000000 -0.000000 0.722727 90.115500 -5.248940 88.859000 -4.812860 12.280400 15.735700 0.000005 -0.000001 89.061600 76.436500 -89.103400 8.984550 -0.406207 -0.000000 19.357500 -0.439101 -0.008822 16.377300 -0.000001 -0.000001 3.501350 -2.139160 0.819823 6.456720 -0.000001 -0.000000 -8.057460 -0.835222 1.364800 12.994200 -0.242716 4.980390 -91.238200 5.191430 -76.565500 5.348090 -0.000007 -0.000001 -57.647000 34.242700 -30.161200 24.328600 0.000019 0.000005 10.595300 23.272200 -25.335000 22.291600 -0.000001 0.000005 9.749440 5.195210 2.838970 12.994500 -0.242716 -4.980390 88.879700 8.908980 -82.803300 -5.348130 -0.000001 -0.000004 -60.453600 29.898900 -23.547900 -24.328900 0.000322 -0.000009 4.501400 8.369100 -28.414200 -22.291500 -0.000108 -0.000004 17.764100 5.382900 -2.389750 -2.192480 -6.469440 -0.000000 -174.349000 -14.063600 -3.795680 39.081100 -0.000007 -0.000012 -0.168865 0.232545 35.986100 40.985400 -0.000006 -0.000013 0.912907 3.648590 -69.605200 11.754300 -0.000000 0.000003 -0.000087 -0.000911 -16.612600 -2.192510 6.469440 -0.000001 174.786000 17.963000 177.072000 -39.081100 -0.002282 -0.040193 -0.161336 0.237467 34.732300 -40.985400 0.000008 0.000006 3.944120 13.448900 -69.393200 -11.754300 -0.000006 -0.000006 -0.002781 -0.038097 -18.122400
0.000000 0.000000 0.000000 0.000000 0.000000 -0.000000 0.710164 90.117100 -5.278320 88.858400 -4.829720 12.286900 15.735700 0.000005 -0.000001 88.971100 76.454600 -89.029200 8.984550 -0.406207 -0.000000 19.320600 -0.482057 -0.034291 16.377300 -0.000001 -0.000001 3.610170 -2.157810 0.866685 6.456720 -0.000001 -0.000000 -8.116820 -0.840017 1.345820 12.994200 -0.242716 4.980390 -91.216900 5.097420 -76.554700 5.348090 -0.000007 -0.000001 -58.095600 33.242600 -29.791800 24.328600 0.000019 0.000005 11.230500 23.416800 -26.547500 22.291600 -0.000001 0.000005 9.962410 5.192880 2.897050 12.994500 -0.242716 -4.980390 88.874800 8.846330 -82.721900 -5.348130 -0.000001 -0.000004 -60.788000 29.032000 -23.356700 -24.328900 0.000322 -0.000009 4.850140 8.439570 -30.040000 -22.291500 -0.000108 -0.000004 18.362800 5.386390 -2.500030 -2.192480 -6.469440 -0.000000 -174.334000 -14.054700 -3.790960 39.081100 -0.000007 -0.000012 -0.172941 0.238222 35.978800 40.985400 -0.000006 -0.000013 0.897896 3.642650 -69.592500 11.754300 -0.000000 0.000003 -0.000079 -0.000839 -16.609900 -2.192510 6.469440 -0.000001 174.804000 17.959100 177.062000 -39.081100 -0.002282 -0.040193 -0.160179 0.235916 34.719000 -40.985400 0.000008 0.000006 3.882170 13.454300 -69.349900 -11.754300 -0.000006 -0.000006 -0.002761 -0.037863 -18.112900
0.000000 0.000000 0.000000 0.000000 0.000000 -0.000000 0.686891 90.118900 -5.302870 88.828800 -4.875260 12.259500 15.735700 0.000005 -0.000001 88.942600 76.478300 -89.009200 8.984550 -0.406207 -0.000000 19.272900 -0.495291 -0.049397 16.377300 -0.000001 -0.000001 3.745740 -2.176960 0.854425 6.456720 -0.000001 -0.000000 -8.182700 -0.881474 1.396950 12.994200 -0.242716 4.980390 -91.200900 5.016740 -76.519700 5.348090 -0.000007 -0.000001 -58.408200 32.144700 -29.499600 24.328600 0.000019 0.000005 12.033800 23.407700 -28.217700 22.291600 -0.000001 0.000005 10.173600 5.191500 2.931430 12.994500 -0.242716 -4.980390 88.868800 8.797670 -82.643700 -5.348130 -0.000001 -0.000004 -60.975000 28.087300 -23.262200 -24.328900 0.000322 -0.000009 5.299810 8.559470 -31.939000 -22.291500 -0.000108 -0.000004 18.671700 5.391240 -2.654800 -2.192480 -6.469440 -0.000000 -174.289000 -14.081200 -3.835950 39.081100 -0.000007 -0.000012 -0.172151 0.237053 35.988000 40.985400 -0.000006 -0.000013 0.879230 3.637240 -69.575500 11.754300 -0.000000 0.000003 -0.000081 -0.000861 -16.610700 -2.192510 6.469440 -0.000001 174.874000 17.966600 177.015000 -39.081100 -0.002282 -0.040193 -0.156862 0.231169 34.714200 -40.985400 0.000008 0.000006 3.981930 13.480400 -69.351700 -11.754300 -0.000006 -0.000006 -0.002645 -0.036524 -18.058400
0.000000 0.000000 0.000000 0.000000 0.000000 -0.000000 0.677803 90.122800 -5.339120 88.842000 -4.914880 12.231000 15.735700 0.000005 -0.000001 88.928300 76.507600 -89.010300 8.984550 -0.406207 -0.000000 19.214200 -0.502388 -0.079314 16.377300 -0.000001 -0.000001 3.896640 -2.172930 0.876039 6.456720 -0.000001 -0.000000 -8.234540 -0.920172 1.394770 12.994200 -0.242716 4.980390 -91.180400 4.915330 -76.479100 5.348090 -0.000007 -0.000001 -58.448100 31.122400 -29.420600 24.328600 0.000019 0.000005 12.999000 23.283000 -30.285800 22.291600 -0.000001 0.000005 10.457500 5.193120 2.891000 12.994500 -0.242716 -4.980390 88.869800 8.708480 -82.576500 -5.348130 -0.000001 -0.000004 -61.001000 27.183500 -23.285200 -24.328900 0.000322 -0.000009 5.858050 8.711480 -34.118900 -22.291500 -0.000108 -0.000004 19.138600 5.390190 -2.621380 -2.192480 -6.469440 -0.000000 -174.300000 -14.165200 -3.892950 39.081100 -0.000007 -0.000012 -0.166344 0.229194 35.971600 40.985400 -0.000006 -0.000013 0.888971 3.658790 -69.527800 11.754300 -0.000000 0.000003 -0.000088 -0.000924 -16.613100 -2.192510 6.469440 -0.000001 174.878000 17.977000 176.960000 -39.081100 -0.002282 -0.040193 -0.160979 0.237255 34.698100 -40.985400 0.000008 0.000006 3.924960 13.519500 -69.297900 -11.754300 -0.000006 -0.000006 -0.002680 -0.036923 -18.074600
0.000000 0.000000 0.000000 0.000000 0.000000 -0.000000 0.654027 90.130800 -5.385340 88.826000 -4.929020 12.184200 15.735700 0.000005 -0.000001 88.950700 76.560200 -89.038200 8.984550 -0.406207 -0.000000 19.109100 -0.490751 -0.092884 16.377300 -0.000001 -0.000001 4.083490 -2.178160 0.894574 6.456720 -0.000001 -0.000000 -8.240260 -0.965626 1.428670 12.994200 -0.242716 4.980390 -91.141400 4.750430 -76.473500 5.348090 -0.000007 -0.000001 -58.445200 30.027200 -29.424400 24.328600 0.000019 0.000005 14.300300 23.382900 -32.711500 22.291600 -0.000001 0.000005 10.948800 5.192460 2.907600 12.994500 -0.242716 -4.980390 88.870500 8.606750 -82.494500 -5.348130 -0.000001 -0.000004 -60.907300 26.281600 -23.377400 -24.328900 0.000322 -0.000009 6.659710 9.096540 -36.451000 -22.291500 -0.000108 -0.000004 19.731200 5.389760 -2.607480 -2.192480 -6.469440 -0.000000 -174.273000 -14.186800 -3.958920 39.081100 -0.000007 -0.000012 -0.169375 0.233572 35.948100 40.985400 -0.000006 -0.000013 0.874756 3.674130 -69.479400 11.754300 -0.000000 0.000003 -0.000081 -0.000857 -16.610600 -2.192510 6.469440 -0.000001 174.935000 17.999300 176.903000 -39.081100 -0.002282 -0.040193 -0.158544 0.234090 34.657800 -40.985400 0.000008 0.000006 3.926080 13.550600 -69.250500 -11.754300 -0.000006 -0.000006 -0.002959 -0.040140 -18.205500
0.000000 0.000000 0.000000 0.000000 0.000000 -0.000000 0.637039 90.139900 -5.419470 88.833300 -4.974070 12.174200 15.735700 0.000005 -0.000001 89.015800 76.606900 -89.115900 8.984550 -0.406207 -0.000000 19.016300 -0.460501 -0.123439 16.377300 -0.000001 -0.000001 4.264550 -2.183450 0.973556 6.456720 -0.000001 -0.000000 -8.213000 -0.952623 1.356800 12.994200 -0.242716 4.980390 -91.117800 4.625370 -76.398600 5.348090 -0.000007 -0.000001 -58.362100 28.763000 -29.609200 24.328600 0.000019 0.000005 15.728000 23.402900 -35.336800 22.291600 -0.000001 0.000005 11.333200 5.188820 2.998010 12.994500 -0.242716 -4.980390 88.883500 8.470910 -82.463200 -5.348130 -0.000001 -0.000004 -60.922600 25.089200 -23.434700 -24.328900 0.000322 -0.000009 7.665050 9.575810 -38.977800 -22.291500 -0.000108 -0.000004 19.936000 5.391660 -2.668420 -2.192480 -6.469440 -0.000000 -174.254000 -14.255900 -3.961360 39.081100 -0.000007 -0.000012 -0.168600 0.232877 35.904400 40.985400 -0.000006 -0.000013 0.869004 3.706370 -69.435500 11.754300 -0.000000 0.000003 -0.000095 -0.000982 -16.615300 -2.192510 6.469440 -0.000001 174.939000 18.023100 176.880000 -39.081100 -0.002282 -0.040193 -0.162329 0.239904 34.619800 -40.985400 0.000008 0.000006 3.920960 13.624100 -69.199400 -11.754300 -0.000006 -0.000006 -0.002817 -0.038511 -18.139200
0.000000 0.000000 0.000000 0.000000 0.000000 -0.000000 0.618781 90.151500 -5.468690 88.814200 -4.914680 12.146100 15.735700 0.000005 -0.000001 89.013100 76.665500 -89.118400 8.984550 -0.406207 -0.000000 18.899100 -0.460296 -0.134475 16.377300 -0.000001 -0.000001 4.435720 -2.164220 0.929583 6.456720 -0.000001 -0.000000 -8.174340 -1.012920 1.447770 12.994200 -0.242716 4.980390 -91.085000 4.489530 -76.398600 5.348090 -0.000007 -0.000001 -58.311400 27.334100 -29.847600 24.328600 0.000019 0.000005 17.396800 23.473500 -38.188200 22.291600 -0.000001 0.000005 11.852800 5.179100 3.237790 12.994500 -0.242716 -4.980390 88.887200 8.358530 -82.389300 -5.348130 -0.000001 -0.000004 -61.063300 23.662600 -23.505300 -24.328900 0.000322 -0.000009 8.532210 9.759340 -41.514300 -22.291500 -0.000108 -0.000004 20.364800 5.390960 -2.646120 -2.192480 -6.469440 -0.000000 -174.239000 -14.262000 -4.016400 39.081100 -0.000007 -0.000012 -0.166451 0.230214 35.868200 40.985400 -0.000006 -0.000013 0.877144 3.749640 -69.373600 11.754300 -0.000000 0.000003 -0.000088 -0.000922 -16.613000 -2.192510 6.469440 -0.000001 174.971000 18.146800 176.856000 -39.081100 -0.002282 -0.040193 -0.160617 0.237889 34.567500 -40.985400 0.000008 0.000006 3.969410 13.652900 -69.155300 -11.754300 -0.000006 -0.000006 -0.002740 -0.037620 -18.103000
0.000000 0.000000 0.000000 0.000000 0.000000 -0.000000 0.603296 90.158500 -5.520760 88.799600 -4.862300 12.111600 15.735700 0.000005 -0.000001 88.992300 76.733600 -89.100800 8.984550 -0.406207 -0.000000 18.762600 -0.467750 -0.140354 16.377300 -0.000001 -0.000001 4.631480 -2.165110 0.963987 6.456720 -0.000001 -0.000000 -8.118460 -1.002020 1.419700 12.994200 -0.242716 4.980390 -91.047600 4.329040 -76.382800 5.348090 -0.000007 -0.000001 -58.298500 25.828500 -30.207800 24.328600 0.000019 0.000005 19.556200 23.883800 -41.261700 22.291600 -0.000001 0.000005 12.343600 5.170360 3.451770 12.994500 -0.242716 -4.980390 88.899700 8.201280 -82.332200 -5.348130 -0.000001 -0.000004 -61.277900 22.119400 -23.666200 -24.328900 0.000322 -0.000009 9.375130 9.839080 -44.018100 -22.291500 -0.000108 -0.000004 20.772300 5.388060 -2.553460 -2.192480 -6.469440 -0.000000 -174.236000 -14.228600 -4.090870 39.081100 -0.000007 -0.000012 -0.164136 0.227160 35.850600 40.985400 -0.000006 -0.000013 0.881693 3.795830 -69.319800 11.754300 -0.000000 0.000003 -0.000099 -0.001016 -16.616600 -2.192510 6.469440 -0.000001 175.015000 18.216000 176.800000 -39.081100 -0.002282 -0.040193 -0.154736 0.229510 34.549400 -40.985400 0.000008 0.000006 4.071410 13.656400 -69.140300 -11.754300 -0.000006 -0.000006 -0.002822 -0.038575 -18.141800
0.000000 0.000000 0.000000 0.000000 0.000000 -0.000000 0.573440 90.159600 -5.551010 88.819700 -4.779390 12.167400 15.735700 0.000005 -0.000001 88.952900 76.770200 -89.075000 8.984550 -0.406207 -0.000000 18.689100 -0.485601 -0.164838 16.377300 -0.000001 -0.000001 4.827780 -2.164630 0.972165 6.456720 -0.000001 -0.000000 -8.135430 -1.031160 1.450550 12.994200 -0.242716 4.980390 -91.005300 4.150680 -76.371800 5.348090 -0.000007 -0.000001 -58.318100 24.243700 -30.676800 24.328600 0.000019 0.000005 22.022600 24.269400 -44.540100 22.291600 -0.000001 0.000005 12.803600 5.158000 3.751280 12.994500 -0.242716 -4.980390 88.915100 8.030290 -82.280200 -5.348130 -0.000001 -0.000004 -61.509200 20.467200 -23.916500 -24.328900 0.000322 -0.000009 10.350000 9.937400 -46.625300 -22.291500 -0.000108 -0.000004 21.025100 5.388190 -2.557650 -2.192480 -6.469440 -0.000000 -174.225000 -14.254700 -4.063300 39.081100 -0.000007 -0.000012 -0.162755 0.225362 35.837000 40.985400 -0.000006 -0.000013 0.892483 3.871730 -69.277300 11.754300 -0.000000 0.000003 -0.000081 -0.000861 -16.610700 -2.192510 6.469440 -0.000001 174.974000 18.329900 176.854000 -39.081100 -0.002282 -0.040193 -0.156750 0.232449 34.547600 -40.985400 0.000008 0.000006 4.024420 13.660500 -69.113800 -11.754300 -0.000006 -0.000006 -0.002807 -0.038394 -18.134500
